<svg width="56" height="55" viewBox="0 0 56 55" fill="none" xmlns="http://www.w3.org/2000/svg">
<g id="Frame 623">
<rect x="0.5" width="55" height="55" rx="27.5" fill="#10CD00"/>
<path id="Vector" d="M38.5544 16.8859C37.1819 15.4995 35.5471 14.4002 33.7453 13.6523C31.9435 12.9043 30.0108 12.5226 28.06 12.5294C19.886 12.5294 13.224 19.1913 13.224 27.3653C13.224 29.9852 13.9127 32.5302 15.2001 34.7758L13.1042 42.4708L20.9639 40.4048C23.1346 41.5875 25.5748 42.2163 28.06 42.2163C36.234 42.2163 42.8959 35.5543 42.8959 27.3803C42.8959 23.4131 41.3539 19.6854 38.5544 16.8859ZM28.06 39.7012C25.8443 39.7012 23.6736 39.1024 21.7723 37.9796L21.3232 37.7101L16.6523 38.9377L17.8949 34.3866L17.5955 33.9225C16.3645 31.9568 15.7109 29.6847 15.7091 27.3653C15.7091 20.5686 21.2483 15.0295 28.045 15.0295C31.3385 15.0295 34.4375 16.317 36.7579 18.6524C37.9069 19.7961 38.8174 21.1565 39.4368 22.6547C40.0561 24.1529 40.3719 25.7591 40.3659 27.3803C40.3958 34.177 34.8567 39.7012 28.06 39.7012ZM34.8267 30.4792C34.4524 30.2996 32.626 29.4014 32.2967 29.2666C31.9523 29.1468 31.7128 29.087 31.4583 29.4463C31.2038 29.8205 30.5002 30.6589 30.2906 30.8984C30.081 31.1529 29.8564 31.1829 29.4822 30.9882C29.1079 30.8086 27.9103 30.4044 26.503 29.1468C25.3952 28.1588 24.6616 26.9462 24.4371 26.5719C24.2275 26.1976 24.4071 26.003 24.6017 25.8084C24.7664 25.6437 24.976 25.3742 25.1557 25.1646C25.3353 24.9551 25.4102 24.7904 25.5299 24.5508C25.6497 24.2963 25.5898 24.0868 25.5 23.9071C25.4102 23.7275 24.6616 21.901 24.3622 21.1525C24.0628 20.4339 23.7484 20.5237 23.5238 20.5088H22.8053C22.5508 20.5088 22.1615 20.5986 21.8172 20.9729C21.4878 21.3471 20.5297 22.2454 20.5297 24.0718C20.5297 25.8982 21.8621 27.6648 22.0417 27.9043C22.2214 28.1588 24.6616 31.9015 28.3743 33.5033C29.2576 33.8926 29.9463 34.1171 30.4852 34.2818C31.3685 34.5662 32.1769 34.5213 32.8206 34.4315C33.5392 34.3267 35.0213 33.5333 35.3207 32.665C35.6351 31.7967 35.6351 31.0631 35.5303 30.8984C35.4255 30.7337 35.201 30.6589 34.8267 30.4792Z" fill="white"/>
</g>
</svg>
