<svg width="56" height="55" viewBox="0 0 56 55" fill="none" xmlns="http://www.w3.org/2000/svg">
<g id="material-symbols:call">
<path id="Vector" d="M50.6917 52.875C45.1972 52.875 39.8416 51.65 34.6249 49.2001C29.4081 46.7502 24.7868 43.5132 20.761 39.489C16.7351 35.4649 13.4981 30.8436 11.0499 25.6251C8.60167 20.4067 7.3767 15.0511 7.375 9.55833C7.375 8.79167 7.63056 8.15278 8.14167 7.64167C8.65278 7.13056 9.29167 6.875 10.0583 6.875H20.4083C21.0046 6.875 21.537 7.06667 22.0056 7.45C22.4741 7.83333 22.7509 8.32315 22.8361 8.91944L24.4972 17.8639C24.5824 18.4602 24.5713 19.0037 24.464 19.4943C24.3567 19.985 24.1122 20.4211 23.7306 20.8028L17.5972 27.0639C19.3861 30.1306 21.6222 33.0056 24.3056 35.6889C26.9889 38.3722 29.9491 40.6935 33.1861 42.6528L39.1917 36.6472C39.575 36.2639 40.0759 35.9768 40.6943 35.786C41.3128 35.5952 41.9193 35.5415 42.5139 35.625L51.3306 37.4139C51.9268 37.5417 52.4167 37.8296 52.8 38.2777C53.1833 38.7257 53.375 39.2471 53.375 39.8417V50.1917C53.375 50.9583 53.1194 51.5972 52.6083 52.1083C52.0972 52.6195 51.4583 52.875 50.6917 52.875Z" fill="#1E232C"/>
</g>
</svg>
