<svg width="26" height="22" viewBox="0 0 26 22" fill="none" xmlns="http://www.w3.org/2000/svg">
<path id="Vector" d="M20.9096 14.842C20.9706 14.9047 21.045 14.956 21.1285 14.993L21.1325 14.9948L23.9698 16.2683L23.9913 16.2781L24.012 16.2891C24.0752 16.3222 24.1484 16.3369 24.2216 16.3308L24.247 16.3287L24.2725 16.3282C24.4093 16.3253 24.5427 16.2902 24.6592 16.2262C24.7736 16.1635 24.8676 16.0753 24.9322 15.9705C24.9693 15.9042 24.9914 15.832 24.9974 15.758C25.0034 15.6821 24.9922 15.6057 24.9644 15.5336C24.9366 15.4616 24.8928 15.3951 24.8353 15.3385C24.778 15.2819 24.7082 15.2362 24.6304 15.2043L24.6187 15.1995L24.6074 15.1944L21.7763 13.9235C21.6043 13.8509 21.4083 13.8373 21.2258 13.8859C21.0508 13.9324 20.9005 14.0327 20.8008 14.168C20.7661 14.2359 20.7452 14.3087 20.7391 14.3831C20.7322 14.4659 20.7436 14.549 20.7729 14.6277C20.8022 14.7064 20.8485 14.7793 20.9096 14.842ZM20.9096 14.842L20.3877 15.2533M5.29599 20.2608L4.79264 16.7147L8.53371 17.9346L8.91985 19.8991C8.93275 20.0622 8.91656 20.2257 8.87329 20.3787C8.82701 20.5428 8.75279 20.6848 8.66338 20.7981L8.65636 20.8072C8.59504 20.8867 8.53056 20.9359 8.47683 20.9637C8.42754 20.9894 8.38527 20.9984 8.35103 21H5.84389C5.77612 21.0004 5.66766 20.9751 5.55045 20.8606C5.42852 20.7414 5.32407 20.5459 5.30071 20.3006L5.29885 20.2806L5.29599 20.2608ZM1.00114 6.59458L1.00042 6.57639C0.996265 6.47913 1.02348 6.39612 1.05773 6.34273C1.07564 6.31477 1.09054 6.30188 1.09685 6.29717L17.661 1H17.7679C17.7679 1 17.7712 1.00346 17.7731 1.0055C17.8089 1.04453 17.8544 1.13088 17.8544 1.25089V17.4587C17.8544 17.5788 17.8089 17.6652 17.7731 17.7041C17.7712 17.7062 17.7679 17.7097 17.7679 17.7097H17.661L1.14943 12.4293C1.13238 12.4172 1.10616 12.3935 1.07879 12.3508C1.03681 12.2854 1.00472 12.193 1.00114 12.0858V6.59458ZM21.5185 4.86811L21.4931 4.86597L21.4676 4.86546C21.3308 4.86271 21.1974 4.82753 21.0809 4.76362C20.9672 4.70122 20.8736 4.61367 20.8091 4.50967C20.7697 4.43766 20.7461 4.35957 20.7395 4.27966C20.7326 4.19697 20.7441 4.11386 20.7733 4.03513C20.8027 3.95639 20.8489 3.88353 20.91 3.82079C20.971 3.75806 21.0454 3.7067 21.1289 3.6698L21.1329 3.66801L23.9702 2.39441C24.1391 2.31855 24.335 2.30602 24.5144 2.35971C24.6937 2.41339 24.8413 2.52861 24.9253 2.67936C25.0093 2.83003 25.023 3.00426 24.9637 3.16391C24.9044 3.32363 24.7766 3.45626 24.6078 3.53208L21.7704 4.8057L21.7489 4.81539L21.7281 4.82635C21.6651 4.8596 21.5917 4.87429 21.5185 4.86811ZM24.2882 9.95977H21.451C21.264 9.95977 21.0852 9.89319 20.9536 9.775C20.8222 9.65706 20.7487 9.49745 20.7487 9.33139C20.7487 9.16532 20.8222 9.00571 20.9536 8.88765C21.0852 8.76958 21.264 8.70287 21.451 8.70287H24.2882C24.4752 8.70287 24.654 8.76958 24.7855 8.88765C24.9171 9.00571 24.9904 9.16532 24.9904 9.33139C24.9904 9.49745 24.9171 9.65706 24.7855 9.775C24.654 9.89319 24.4752 9.95977 24.2882 9.95977Z" stroke="black"/>
</svg>
