<svg width="24" height="26" viewBox="0 0 24 26" fill="none" xmlns="http://www.w3.org/2000/svg">
<g id="Frame 48095638">
<path id="Vector" d="M21.9626 25L21.9989 23.3979C22.0574 20.8139 19.7754 18.6942 17.0028 18.6318C13.6171 21.1409 10.29 21.066 7.02151 18.4071C4.24892 18.3447 2.0949 20.3645 2.03632 22.9485L2 24.5506M5.60832 12.2222C4.49929 12.1973 4.08537 5.98312 5.79578 3.95334C9.2166 -0.106212 15.8708 0.0435703 19.1041 4.2529C20.7208 6.35757 20.0257 12.5467 18.9167 12.5218M6.18604 11.201C6.09231 15.3355 8.70829 17.4109 12.0354 17.4858C15.3625 17.5607 18.2917 15.6101 18.3854 11.4757C18.4791 7.34121 16.839 6.27014 16.839 6.27014C12.356 8.23751 9.05234 7.12902 7.96674 6.07043C7.96674 6.07043 6.27977 7.0666 6.18604 11.201Z" stroke="black" stroke-linecap="round" stroke-linejoin="round"/>
</g>
</svg>
