<svg width="26" height="24" viewBox="0 0 26 24" fill="none" xmlns="http://www.w3.org/2000/svg">
<g id="Frame 48095639">
<path id="Vector" d="M22.0731 7.69824C22.1002 9.23903 20.9262 10.4792 19.4883 10.5052C18.0504 10.5311 16.8337 9.33397 16.8067 7.79318C16.7796 6.25238 17.9535 5.01214 19.3915 4.98621C20.8294 4.96029 22.0461 6.15744 22.0731 7.69824ZM19.3613 15.108C19.3517 14.5619 19.2724 14.0334 19.1322 13.5317C19.2675 13.5394 19.404 13.5421 19.5415 13.5397C20.8909 13.5153 22.1185 12.9956 23.0667 12.1547C24.1549 12.7177 24.9209 13.8827 24.945 15.2518L25 18.3915L19.4206 18.492L19.3613 15.108ZM12.8367 6.15357C12.878 8.50417 11.085 10.4123 8.86924 10.4522C6.65349 10.4921 4.7948 8.64988 4.75357 6.29928C4.71233 3.94868 6.50523 2.04058 8.721 2.00064C10.9368 1.96069 12.7955 3.80295 12.8367 6.15357ZM1.00058 15.439C0.971625 13.7887 2.02864 12.4001 3.46163 11.985C4.87605 13.3987 6.81186 14.2581 8.93532 14.2198C11.0588 14.1815 12.9633 13.2529 14.3272 11.7892C15.7739 12.1523 16.8789 13.5019 16.9078 15.1522L17.023 21.7132L1.11568 22L1.00058 15.439Z" stroke="black" stroke-width="1.2"/>
</g>
</svg>
