<svg width="24" height="26" viewBox="0 0 24 26" fill="none" xmlns="http://www.w3.org/2000/svg">
<g id="Frame 48095637">
<path id="Vector" d="M5.6029 3.87125L5.2578 3.50944L4.89974 3.85097L5.23752 4.21256L5.6029 3.87125ZM6.7293 2.79685L7.09468 2.45553L6.74979 2.08632L6.38419 2.43504L6.7293 2.79685ZM7.18967 3.28969L7.53477 3.65149L7.89283 3.30997L7.55505 2.94837L7.18967 3.28969ZM6.06327 4.36408L5.69789 4.7054L6.04278 5.07461L6.40838 4.72589L6.06327 4.36408ZM19.7712 3.92078L20.1208 4.27824L20.4746 3.93227L20.1323 3.57492L19.7712 3.92078ZM18.6947 2.79682L19.0558 2.45097L18.7063 2.08609L18.3451 2.43936L18.6947 2.79682ZM18.2124 3.26846L17.8628 2.911L17.5091 3.25697L17.8514 3.61431L18.2124 3.26846ZM19.289 4.39242L18.9279 4.73827L19.2774 5.10315L19.6386 4.74988L19.289 4.39242ZM1.50012 24.5476C1.49395 24.8237 1.71275 25.0525 1.98883 25.0587C2.2649 25.0648 2.4937 24.846 2.49988 24.57L1.50012 24.5476ZM2.03447 23.0167L1.5346 23.0055L2.03447 23.0167ZM7.22494 18.5063L7.55557 18.1313C7.46719 18.0534 7.35414 18.0092 7.23635 18.0065L7.22494 18.5063ZM16.3816 18.7154L16.3931 18.2155C16.2752 18.2129 16.1602 18.2519 16.0683 18.3258L16.3816 18.7154ZM21.3652 23.4579L21.8651 23.469L21.8651 23.469L21.3652 23.4579ZM20.8309 24.9888C20.8247 25.2649 21.0435 25.4937 21.3195 25.4999C21.5956 25.506 21.8244 25.2872 21.8306 25.0112L20.8309 24.9888ZM6.40331 9.74448L5.90343 9.7333L6.40331 9.74448ZM11.8382 17.0688L11.8496 16.5689L11.8496 16.5689L11.8382 17.0688ZM17.5948 9.9999L18.0947 10.0111L18.0947 10.0111L17.5948 9.9999ZM6.4148 9.2304L6.91468 9.24158V9.24158L6.4148 9.2304ZM14.2001 2.46492L14.6501 2.24699L14.6199 2.18455L14.5738 2.13271L14.2001 2.46492ZM12.6913 1.65903L12.7853 1.16795L12.7334 1.158L12.6805 1.15914L12.6913 1.65903ZM7.82404 3.09084L7.6068 2.64049L7.55781 2.66413L7.51504 2.69774L7.82404 3.09084ZM4.95152 6.36825L4.47319 6.22265L4.46696 6.24312L4.4625 6.26405L4.95152 6.36825ZM5.83104 12.56L5.38925 12.7942L5.42109 12.8542L5.4678 12.9036L5.83104 12.56ZM15.2232 2.2312L15.0449 1.76406L14.928 1.80865L14.8459 1.90301L15.2232 2.2312ZM17.5066 2.54048L17.835 2.16344L17.803 2.13559L17.7668 2.11352L17.5066 2.54048ZM19.2411 4.6373L19.7177 4.48626L19.7014 4.43468L19.6744 4.38778L19.2411 4.6373ZM19.6578 8.76126L19.1623 8.69409L19.1613 8.70251L19.6578 8.76126ZM18.56 12.3363L18.929 12.6737L18.9606 12.6392L18.9852 12.5993L18.56 12.3363ZM6.63603 1.41361L6.21524 1.68367L6.21525 1.68369L6.63603 1.41361ZM6.6786 2.32374L6.20959 2.15046L6.20958 2.15047L6.6786 2.32374ZM4.55621 3.7147L4.52452 4.2137H4.52452L4.55621 3.7147ZM3.7512 3.30426L4.17199 3.03419L4.17198 3.03418L3.7512 3.30426ZM3.70863 2.39413L3.23961 2.22085L3.23961 2.22086L3.70863 2.39413ZM4.56173 1.37442L4.8358 1.79262L4.8358 1.79261L4.56173 1.37442ZM5.83102 1.00317L5.79933 1.50217L5.79934 1.50217L5.83102 1.00317ZM19.0524 1.85958L19.4606 2.14835L19.4607 2.14825L19.0524 1.85958ZM18.9692 2.76688L19.4455 2.6148L19.4455 2.61479L18.9692 2.76688ZM21.0271 4.25322L21.036 4.75314L21.036 4.75314L21.0271 4.25322ZM21.8497 3.8799L22.2579 4.16868L22.2579 4.16867L21.8497 3.8799ZM21.933 2.9726L21.4566 3.12467L21.4566 3.12469L21.933 2.9726ZM21.1263 1.91504L21.419 1.5097L21.419 1.5097L21.1263 1.91504ZM19.8749 1.48627L19.8838 1.98619L19.8838 1.98619L19.8749 1.48627ZM5.948 4.23305L7.0744 3.15865L6.38419 2.43504L5.2578 3.50944L5.948 4.23305ZM6.36391 3.13816L6.82429 3.631L7.55505 2.94837L7.09468 2.45553L6.36391 3.13816ZM6.84457 2.92788L5.71817 4.00228L6.40838 4.72589L7.53477 3.65149L6.84457 2.92788ZM6.42866 4.02277L5.96828 3.52993L5.23752 4.21256L5.69789 4.7054L6.42866 4.02277ZM20.1323 3.57492L19.0558 2.45097L18.3336 3.14267L19.4101 4.26663L20.1323 3.57492ZM18.3451 2.43936L17.8628 2.911L18.562 3.62592L19.0443 3.15428L18.3451 2.43936ZM17.8514 3.61431L18.9279 4.73827L19.6501 4.04656L18.5735 2.92261L17.8514 3.61431ZM19.6386 4.74988L20.1208 4.27824L19.4216 3.56331L18.9394 4.03495L19.6386 4.74988ZM2.49988 24.57L2.53435 23.0278L1.5346 23.0055L1.50012 24.5476L2.49988 24.57ZM2.53435 23.0278C2.55924 21.9144 3.13323 20.8998 4.01825 20.1594C4.90489 19.4177 6.07192 18.9802 7.21354 19.0062L7.23635 18.0065C5.83443 17.9745 4.43496 18.507 3.37661 19.3924C2.31664 20.2791 1.56717 21.5486 1.5346 23.0055L2.53435 23.0278ZM6.89431 18.8814C8.45249 20.255 10.0727 21.0001 11.7488 21.0384C13.4249 21.0767 15.0769 20.4062 16.695 19.1051L16.0683 18.3258C14.5767 19.5252 13.1477 20.0701 11.7716 20.0387C10.3954 20.0073 8.99216 19.3976 7.55557 18.1313L6.89431 18.8814ZM16.3702 19.2153C17.5118 19.2413 18.6582 19.7316 19.511 20.5132C20.3621 21.2933 20.8902 22.3333 20.8653 23.4467L21.8651 23.469C21.8977 22.0123 21.2057 20.71 20.1866 19.776C19.1691 18.8433 17.7949 18.2475 16.3931 18.2155L16.3702 19.2153ZM20.8654 23.4467L20.8309 24.9888L21.8306 25.0112L21.8651 23.469L20.8654 23.4467ZM5.90343 9.7333C5.8079 14.0065 8.39609 17.4904 11.8268 17.5687L11.8496 16.5689C9.17581 16.5079 6.81485 13.7071 6.90318 9.75565L5.90343 9.7333ZM11.8267 17.5687C15.2577 17.647 17.9991 14.2844 18.0947 10.0111L17.0949 9.98872C17.0066 13.9402 14.523 16.63 11.8496 16.5689L11.8267 17.5687ZM18.0947 10.0111C18.1251 8.6522 17.8791 7.53673 17.3523 6.48209C16.8318 5.4397 16.048 4.47986 15.0438 3.41816L14.3173 4.10534C15.3019 5.14626 16.004 6.02041 16.4577 6.92889C16.9053 7.82513 17.122 8.77741 17.0949 9.98872L18.0947 10.0111ZM14.3332 3.40211C13.8554 3.86354 13.1206 4.36856 12.2556 4.89167C11.3963 5.4114 10.4413 5.9299 9.53585 6.42564C8.63882 6.91679 7.7822 7.38997 7.14845 7.80722C6.83282 8.01502 6.55187 8.22215 6.34386 8.42304C6.23963 8.52372 6.14088 8.63497 6.06499 8.75595C5.99054 8.87463 5.91909 9.03293 5.91493 9.21923L6.91468 9.24158C6.91338 9.29937 6.89276 9.3182 6.91212 9.28735C6.93003 9.25879 6.96805 9.21044 7.03858 9.14233C7.18008 9.00567 7.40055 8.83851 7.69835 8.64245C8.29145 8.25197 9.10967 7.79906 10.0161 7.30277C10.9141 6.81106 11.8912 6.28077 12.7731 5.74735C13.6495 5.21731 14.4652 4.66482 15.0279 4.12139L14.3332 3.40211ZM5.91493 9.21923L5.90343 9.7333L6.90318 9.75565L6.91468 9.24158L5.91493 9.21923ZM15.17 3.65976C15.1043 3.34455 14.9692 2.9849 14.8607 2.72197C14.8049 2.58656 14.7528 2.46899 14.7146 2.38509C14.6954 2.34305 14.6797 2.30924 14.6685 2.28561C14.6629 2.27379 14.6585 2.2645 14.6554 2.25799C14.6539 2.25473 14.6526 2.25216 14.6517 2.25032C14.6513 2.2494 14.6509 2.24866 14.6507 2.2481C14.6505 2.24782 14.6504 2.24759 14.6503 2.24741C14.6503 2.24731 14.6503 2.24723 14.6502 2.24716C14.6502 2.24713 14.6502 2.24709 14.6502 2.24707C14.6502 2.24703 14.6501 2.24699 14.2001 2.46492C13.7501 2.68285 13.7501 2.68282 13.7501 2.68279C13.7501 2.68279 13.7501 2.68276 13.7501 2.68275C13.7501 2.68273 13.7501 2.68272 13.7501 2.68272C13.7501 2.68271 13.7501 2.68276 13.7501 2.68285C13.7502 2.68303 13.7504 2.68339 13.7506 2.68393C13.7512 2.685 13.752 2.68678 13.7532 2.68923C13.7555 2.69413 13.7591 2.70173 13.7639 2.71178C13.7734 2.7319 13.7873 2.76178 13.8045 2.79951C13.8389 2.87514 13.886 2.98144 13.9363 3.10335C14.0401 3.35505 14.1452 3.64381 14.191 3.86374L15.17 3.65976ZM14.5738 2.13271C14.3611 1.89346 14.1464 1.68405 13.8508 1.5182C13.5593 1.35469 13.2218 1.25152 12.7853 1.16795L12.5973 2.15011C12.984 2.22414 13.2031 2.30149 13.3615 2.39031C13.5156 2.47679 13.6437 2.59153 13.8265 2.79714L14.5738 2.13271ZM12.6805 1.15914C10.423 1.20784 9.45492 1.74902 7.6068 2.64049L8.04127 3.54118C9.88998 2.64943 10.6832 2.20246 12.7021 2.15891L12.6805 1.15914ZM7.51504 2.69774C6.58639 3.42771 5.93106 3.94617 5.46459 4.45288C4.97543 4.98423 4.69252 5.5021 4.47319 6.22265L5.42985 6.51385C5.61016 5.92149 5.82325 5.53974 6.2003 5.13017C6.60005 4.69594 7.18115 4.23216 8.13303 3.48393L7.51504 2.69774ZM4.4625 6.26405C4.14414 7.75806 4.08313 8.86587 4.26071 9.88015C4.43761 10.8905 4.84502 11.7674 5.38925 12.7942L6.27282 12.3259C5.73712 11.3152 5.39399 10.5546 5.24572 9.70769C5.09814 8.86471 5.13733 7.89539 5.44054 6.47246L4.4625 6.26405ZM5.4678 12.9036L6.21362 13.6921L6.94009 13.0049L6.19427 12.2164L5.4678 12.9036ZM15.1792 3.72591C15.1593 3.44908 15.1693 3.29469 15.2147 3.15432C15.2606 3.01214 15.3589 2.83694 15.6004 2.5594L14.8459 1.90301C14.5622 2.22911 14.3679 2.52279 14.2631 2.84677C14.1578 3.17256 14.1591 3.48163 14.1818 3.79759L15.1792 3.72591ZM15.4014 2.69835C15.8136 2.54105 16.0757 2.51291 16.3074 2.54985C16.5538 2.58913 16.8247 2.71046 17.2464 2.96745L17.7668 2.11352C17.323 1.84307 16.9133 1.6338 16.4649 1.56232C16.0018 1.4885 15.5549 1.56944 15.0449 1.76406L15.4014 2.69835ZM17.1782 2.91753C17.9781 3.61419 18.3171 4.0348 18.8078 4.88682L19.6744 4.38778C19.128 3.43893 18.7178 2.93231 17.835 2.16344L17.1782 2.91753ZM18.7644 4.78834C19.0228 5.60365 19.1687 6.20822 19.2285 6.78838C19.2881 7.36537 19.2647 7.93952 19.1624 8.69409L20.1533 8.82843C20.2623 8.02432 20.2935 7.3662 20.2233 6.68574C20.1534 6.00845 19.9852 5.33038 19.7177 4.48626L18.7644 4.78834ZM19.1613 8.70251C18.9682 10.3346 18.7613 11.0604 18.1347 12.0733L18.9852 12.5993C19.7166 11.4169 19.9517 10.5325 20.1544 8.82002L19.1613 8.70251ZM18.191 11.9989C17.7307 12.5023 17.4871 12.7343 17.3486 12.8349C17.2821 12.8831 17.2795 12.8709 17.3207 12.8626C17.3831 12.8499 17.4372 12.8655 17.4532 12.872L17.0772 13.7987C17.1894 13.8442 17.3392 13.8792 17.5198 13.8425C17.6791 13.8102 17.817 13.7306 17.9361 13.6441C18.1686 13.4753 18.4763 13.1688 18.929 12.6737L18.191 11.9989ZM6.21525 1.68369C6.25868 1.75135 6.30266 1.89853 6.20959 2.15046L7.14762 2.49702C7.32232 2.02414 7.30795 1.5348 7.05681 1.14353L6.21525 1.68369ZM6.20958 2.15047C6.11611 2.40351 5.89953 2.69713 5.55144 2.92526L6.09958 3.76164C6.60999 3.42713 6.97332 2.96883 7.14762 2.49701L6.20958 2.15047ZM5.55144 2.92526C5.20329 3.15343 4.85131 3.23243 4.5879 3.21571L4.52452 4.2137C5.02529 4.2455 5.58924 4.09611 6.09958 3.76164L5.55144 2.92526ZM4.58791 3.21571C4.32668 3.19911 4.21472 3.10077 4.17199 3.03419L3.33041 3.57433C3.58223 3.96668 4.02164 4.18175 4.52452 4.2137L4.58791 3.21571ZM4.17198 3.03418C4.12856 2.96652 4.08458 2.81932 4.17764 2.5674L3.23961 2.22086C3.06492 2.69372 3.07928 3.18307 3.33042 3.57434L4.17198 3.03418ZM4.17764 2.56741C4.27113 2.31436 4.4877 2.02074 4.8358 1.79262L4.28766 0.956229C3.77724 1.29074 3.41392 1.74904 3.23961 2.22085L4.17764 2.56741ZM4.8358 1.79261C5.18395 1.56444 5.53592 1.48544 5.79933 1.50217L5.86271 0.504176C5.36194 0.472373 4.798 0.621762 4.28765 0.956231L4.8358 1.79261ZM5.79934 1.50217C6.06056 1.51875 6.17251 1.61709 6.21524 1.68367L7.05683 1.14355C6.80501 0.751186 6.36559 0.536105 5.8627 0.504175L5.79934 1.50217ZM18.6442 1.57081C18.3756 1.95049 18.3396 2.43881 18.4929 2.91896L19.4455 2.61479C19.3637 2.3587 19.4143 2.21375 19.4606 2.14835L18.6442 1.57081ZM18.4929 2.91895C18.6459 3.39812 18.9882 3.87241 19.483 4.22978L20.0685 3.41911C19.7309 3.17526 19.5276 2.87195 19.4455 2.6148L18.4929 2.91895ZM19.483 4.22978C19.9778 4.58711 20.5344 4.76206 21.036 4.75314L21.0182 3.7533C20.7544 3.75799 20.4062 3.663 20.0685 3.41911L19.483 4.22978ZM21.036 4.75314C21.5399 4.74418 21.9886 4.54933 22.2579 4.16868L21.4416 3.59112C21.396 3.65555 21.2799 3.74864 21.0182 3.7533L21.036 4.75314ZM22.2579 4.16867C22.5265 3.78898 22.5626 3.30067 22.4093 2.82052L21.4566 3.12469C21.5384 3.38079 21.4878 3.52573 21.4416 3.59113L22.2579 4.16867ZM22.4093 2.82053C22.2563 2.34131 21.9138 1.86704 21.419 1.5097L20.8335 2.32037C21.1712 2.56425 21.3746 2.86758 21.4566 3.12467L22.4093 2.82053ZM21.419 1.5097C20.9243 1.15239 20.3678 0.977422 19.8661 0.986347L19.8838 1.98619C20.1477 1.98149 20.4958 2.07648 20.8335 2.32037L21.419 1.5097ZM19.8661 0.986347C19.3623 0.995299 18.9134 1.19011 18.6442 1.57091L19.4607 2.14825C19.5061 2.08397 19.6221 1.99084 19.8838 1.98619L19.8661 0.986347Z" fill="black"/>
</g>
</svg>
