<svg width="30" height="31" viewBox="0 0 30 31" fill="none" xmlns="http://www.w3.org/2000/svg">
<path d="M7.40774 18.5949L6.45841 22.1388L2.98865 22.2122C1.9517 20.2889 1.36353 18.0884 1.36353 15.75C1.36353 13.4888 1.91345 11.3564 2.88824 9.47876H2.88899L5.97805 10.0451L7.33125 13.1156C7.04803 13.9413 6.89366 14.8277 6.89366 15.75C6.89376 16.751 7.07509 17.7101 7.40774 18.5949Z" fill="#FBBB00"/>
<path d="M28.3981 13.2024C28.5547 14.0273 28.6364 14.8792 28.6364 15.7498C28.6364 16.7261 28.5337 17.6784 28.3382 18.597C27.6744 21.7229 25.9398 24.4524 23.537 26.384L23.5363 26.3832L19.6454 26.1847L19.0948 22.7471C20.6892 21.8121 21.9352 20.3488 22.5915 18.597H15.2998V13.2024H22.6979H28.3981Z" fill="#518EF8"/>
<path d="M23.5362 26.3834L23.537 26.3842C21.2001 28.2625 18.2315 29.3864 15 29.3864C9.80695 29.3864 5.29198 26.4838 2.98877 22.2123L7.40786 18.595C8.55944 21.6684 11.5242 23.8562 15 23.8562C16.494 23.8562 17.8936 23.4523 19.0946 22.7473L23.5362 26.3834Z" fill="#28B446"/>
<path d="M23.7039 5.25287L19.2863 8.86949C18.0433 8.09254 16.574 7.64371 14.9998 7.64371C11.4454 7.64371 8.42513 9.9319 7.33124 13.1155L2.88893 9.47865H2.88818C5.15768 5.10303 9.72959 2.11353 14.9998 2.11353C18.3085 2.11353 21.3422 3.29211 23.7039 5.25287Z" fill="#F14336"/>
</svg>
