<svg width="24" height="25" viewBox="0 0 24 25" fill="none" xmlns="http://www.w3.org/2000/svg">
<g id="Frame 48095635">
<path id="Vector" d="M6.73321 3.91568L9.31496 6.92773C10.1172 7.56257 10.5931 7.71259 11.4664 7.78831H17.0602M5.87263 9.50948V12.5215C6.05821 13.243 6.22276 13.6278 6.73321 14.2427L9.31496 16.8244H14.4785L16.6299 14.2427C17.0851 13.583 17.2503 13.2039 17.4905 12.5215V9.50948M5.44234 7.7883V4.77626C6.14261 2.95916 6.73465 2.14464 8.45438 1.33391C10.8073 0.873244 12.1256 0.90442 14.4785 1.33391C16.3975 2.36677 17.0853 3.16304 17.9208 4.77626V7.7883M2 25V21.5577C2.32928 19.9669 2.84863 19.277 4.15146 18.5456C5.79962 17.9681 6.74513 18.0411 8.45438 18.5456L9.74525 20.6971C10.6058 21.1274 12.7573 21.1274 13.6179 20.6971C14.4416 19.7272 14.3647 19.2762 14.9088 18.5456C16.6168 18.0839 17.5656 17.9718 19.2117 18.5456C20.7137 19.4471 21.0658 20.156 21.3631 21.5577V25" stroke="#1E232C"/>
</g>
</svg>
