<svg width="26" height="26" viewBox="0 0 26 26" fill="none" xmlns="http://www.w3.org/2000/svg">
<g id="Group 25">
<path id="Vector 9" d="M3.14307 5.36353H21.1431" stroke="black"/>
<path id="Vector 10" d="M22.4286 7.10909V6.67273H21.5714V5.36364H19V2.30909H18.5714V5.36364H16.4286V1H13.8571V5.36364H7V4.05455H6.57143V5.36364H3.46274C3.17723 5.40402 2.75417 5.92606 2.71429 6.23636V7.10909H1.85714V9.29091H2.71429V13.2182H7.85714V11.4727H12.5714C13.421 11.6942 13.7202 11.9562 13.8571 12.7337V15.4396C13.8526 16.2551 13.2314 17.3642 12.5714 17.5818H2.71429C1.34847 18.1021 1.11242 18.6435 1 19.7636V23.6909H22.4286V11.4727M22.4286 7.10909H25V11.4727H22.4286M22.4286 7.10909V11.4727M5.28571 5.8V11.0364H5.71429V5.8" stroke="black"/>
<path id="Ellipse 1" d="M19.8857 15.8364C19.8857 16.8273 19.0986 17.6182 18.1429 17.6182C17.1871 17.6182 16.4 16.8273 16.4 15.8364C16.4 14.8455 17.1871 14.0545 18.1429 14.0545C19.0986 14.0545 19.8857 14.8455 19.8857 15.8364Z" stroke="black" stroke-width="0.8"/>
<path id="Vector 14" d="M17.2856 10.6V8.41821H18.9999V10.6H17.2856Z" stroke="black"/>
<path id="Vector 15" d="M5.28564 13.6545V15.4" stroke="black"/>
<path id="Vector 16" d="M4 15.8364H6.57143" stroke="black"/>
<path id="Vector 12" d="M3.14307 24.1272V24.9999H5.28592V24.1272" stroke="black"/>
<rect id="Rectangle 1" x="3.14307" y="24.1272" width="1.71429" height="0.872727" fill="black"/>
<path id="Vector 13" d="M17.7144 24.1272V24.9999H19.8572V24.1272" stroke="black"/>
<rect id="Rectangle 2" x="17.7144" y="24.1272" width="1.71429" height="0.872727" fill="black"/>
</g>
</svg>
