<svg width="26" height="25" viewBox="0 0 26 25" fill="none" xmlns="http://www.w3.org/2000/svg">
<g id="Group 30">
<path id="Vector" d="M5.16346 14.9268L6.23754 13.459L6.94838 12.4876V13.6846V23.9344C6.94838 23.9426 6.95123 23.9555 6.96773 23.9705C6.98471 23.986 7.01333 23.9999 7.05168 23.9999H18.9485C18.9868 23.9999 19.0155 23.986 19.0324 23.9705C19.0489 23.9555 19.0518 23.9426 19.0518 23.9344V13.6846V12.4876L19.7627 13.459L20.837 14.9271M5.16346 14.9268C5.1634 14.9268 5.16351 14.9267 5.16346 14.9268ZM5.16346 14.9268C5.15199 14.9422 5.13009 14.9584 5.09668 14.965C5.06326 14.9715 5.02922 14.9661 5.00184 14.9509M5.00184 14.9509C5.0017 14.9508 5.00198 14.9509 5.00184 14.9509ZM5.00184 14.9509L1.03709 12.6934C1.01213 12.6792 1.00323 12.662 1.00083 12.6526C0.99884 12.6434 0.999962 12.6323 1.00929 12.6196L4.1208 8.36785C4.6867 7.5946 5.48884 6.99911 6.44505 6.64944L8.99037 5.81238L8.99155 5.81199C9.0311 5.79884 9.07505 5.80564 9.1044 5.82451L9.1055 5.82524C9.13375 5.84326 9.13775 5.86282 9.13775 5.8707C9.13775 6.66435 9.63375 7.33469 10.3314 7.78865C11.0323 8.24469 11.9773 8.51472 13.0001 8.51472C14.0228 8.51472 14.968 8.24469 15.6689 7.78865C16.3665 7.33469 16.8624 6.66435 16.8624 5.8707C16.8624 5.86283 16.8664 5.84326 16.8946 5.82524L16.8958 5.82451C16.9252 5.80564 16.9691 5.79884 17.0087 5.81199L17.0099 5.8124L19.5399 6.64405C20.5123 6.99929 21.3138 7.59491 21.8794 8.36778M21.8794 8.36778L22.1978 8.14222M21.8794 8.36778L24.9909 12.6196C24.996 12.6266 24.9983 12.6327 24.9993 12.6374C25.0003 12.6421 25.0003 12.6468 24.999 12.6518L24.9986 12.6535C24.9968 12.6616 24.9888 12.6787 24.9632 12.6933L20.9989 14.9505M20.9989 14.9505C20.9987 14.9506 20.9991 14.9505 20.9989 14.9505ZM20.9989 14.9505C20.971 14.9661 20.9364 14.9716 20.9033 14.9651C20.87 14.9585 20.8484 14.9425 20.837 14.9271M20.837 14.9271C20.8369 14.9271 20.8371 14.9272 20.837 14.9271Z" stroke="black"/>
<path id="Vector_2" fill-rule="evenodd" clip-rule="evenodd" d="M14.9833 5.41912H13.4962V4.47032C14.6259 4.26032 15.479 3.34811 15.479 2.25797C15.479 1.01292 14.3672 0 13.0005 0C11.6339 0 10.522 1.01292 10.522 2.25797C10.522 2.50725 10.7436 2.70956 11.0177 2.70956C11.2919 2.70956 11.5134 2.50725 11.5134 2.25797C11.5134 1.51103 12.1806 0.903183 13.0005 0.903183C13.8204 0.903183 14.4876 1.51103 14.4876 2.25797C14.4876 3.0049 13.8204 3.61274 13.0005 3.61274C12.7264 3.61274 12.5048 3.81506 12.5048 4.06433V5.41912H11.0177C10.7436 5.41912 10.522 5.62143 10.522 5.87071C10.522 6.11999 10.7436 6.3223 11.0177 6.3223H14.9833C15.2575 6.3223 15.479 6.11999 15.479 5.87071C15.479 5.62143 15.2575 5.41912 14.9833 5.41912Z" fill="black"/>
</g>
</svg>
