<svg width="30" height="31" viewBox="0 0 30 31" fill="none" xmlns="http://www.w3.org/2000/svg">
<g id="Frame 623">
<rect y="0.75" width="30" height="30" rx="15" fill="#10CD00"/>
<path id="Vector" d="M20.7569 9.96053C20.0083 9.20432 19.1165 8.60473 18.1337 8.19676C17.151 7.78878 16.0968 7.58057 15.0327 7.58428C10.5741 7.58428 6.94033 11.2181 6.94033 15.6766C6.94033 17.1056 7.31595 18.4938 8.01822 19.7187L6.875 23.9159L11.1621 22.7891C12.3461 23.4342 13.6771 23.7771 15.0327 23.7771C19.4912 23.7771 23.125 20.1433 23.125 15.6848C23.125 13.5208 22.2839 11.4875 20.7569 9.96053ZM15.0327 22.4053C13.8241 22.4053 12.6401 22.0786 11.603 21.4662L11.358 21.3192L8.8103 21.9888L9.48807 19.5064L9.32475 19.2532C8.65331 18.181 8.29679 16.9417 8.29585 15.6766C8.29585 11.9693 11.3172 8.94797 15.0245 8.94797C16.821 8.94797 18.5113 9.65023 19.777 10.9241C20.4037 11.5479 20.9004 12.29 21.2382 13.1072C21.576 13.9244 21.7483 14.8005 21.745 15.6848C21.7613 19.3921 18.7399 22.4053 15.0327 22.4053ZM18.7236 17.3751C18.5195 17.2771 17.5232 16.7872 17.3436 16.7137C17.1558 16.6483 17.0251 16.6157 16.8863 16.8117C16.7475 17.0158 16.3637 17.4731 16.2494 17.6037C16.135 17.7426 16.0126 17.7589 15.8084 17.6527C15.6043 17.5548 14.951 17.3343 14.1834 16.6483C13.5791 16.1094 13.179 15.448 13.0565 15.2438C12.9422 15.0397 13.0402 14.9335 13.1464 14.8274C13.2362 14.7375 13.3505 14.5906 13.4485 14.4762C13.5465 14.3619 13.5873 14.2721 13.6526 14.1414C13.718 14.0026 13.6853 13.8883 13.6363 13.7903C13.5873 13.6923 13.179 12.6961 13.0157 12.2878C12.8524 11.8958 12.6809 11.9448 12.5584 11.9367H12.1665C12.0276 11.9367 11.8153 11.9857 11.6275 12.1898C11.4479 12.394 10.9253 12.8839 10.9253 13.8801C10.9253 14.8764 11.652 15.8399 11.75 15.9706C11.848 16.1094 13.179 18.1509 15.2041 19.0246C15.6859 19.2369 16.0616 19.3594 16.3555 19.4492C16.8373 19.6044 17.2783 19.5799 17.6294 19.5309C18.0214 19.4737 18.8298 19.0409 18.9931 18.5673C19.1646 18.0937 19.1646 17.6936 19.1074 17.6037C19.0503 17.5139 18.9278 17.4731 18.7236 17.3751Z" fill="white"/>
</g>
</svg>
