<svg width="24" height="26" viewBox="0 0 24 26" fill="none" xmlns="http://www.w3.org/2000/svg">
<g id="Frame 48095636">
<path id="Vector" d="M3.08831 18.1227C1.21568 15.2179 2.88488 13.2179 3.87777 11.0085C4.76157 8.99081 3.84431 7.85422 4.69 5.20488C5.53568 2.55556 8.61092 0.926888 11.9619 1.00253C14.7893 1.06635 16.1178 2.55184 16.1178 2.55184C18.3126 2.79545 19.9497 4.53049 19.9047 6.51865C20.0352 10.0148 20.3494 10.0219 21.5446 12.7658C22.392 14.6771 22.0296 16.8036 20.6834 18.4228M2 24.5508L2.03289 23.0961C2.08771 20.6715 4.74953 18.7909 7.36754 18.85C10.4543 21.3455 13.5958 21.4165 16.7922 19.0627C19.4102 19.1219 21.9844 21.1206 21.9296 23.5452L21.8967 25M6.50655 10.5827C6.4189 14.462 8.97113 17.4306 12.1127 17.5015C15.2543 17.5725 17.938 14.722 18.0257 10.8427C18.0805 8.41809 17.0662 6.93969 15.0157 4.95273C12.8775 6.84514 6.53944 9.12791 6.51754 10.0977L6.50655 10.5827Z" stroke="#000000" stroke-linecap="round" stroke-linejoin="round"/>
</g>
</svg>
